<?xml version="1.0" encoding="utf-8"?>
<!-- Generator: Adobe Illustrator 16.0.0, SVG Export Plug-In . SVG Version: 6.00 Build 0)  -->
<!DOCTYPE svg PUBLIC "-//W3C//DTD SVG 1.1//EN" "http://www.w3.org/Graphics/SVG/1.1/DTD/svg11.dtd">
<svg version="1.1" id="Layer_1" xmlns="http://www.w3.org/2000/svg" xmlns:xlink="http://www.w3.org/1999/xlink" x="0px" y="0px"
	 width="850.391px" height="131px" viewBox="0 0 850.391 131" enable-background="new 0 0 850.391 131" xml:space="preserve">
<g>
	<path fill="#FFFFFF" d="M187.167,99.583V31.418h9.736v68.163h-9.736V99.583z M195.736,83.125l-0.487-11.882l38.658-39.827h11.103
		l-29.895,31.551l-5.454,6.037L195.736,83.125z M235.465,99.583L207.518,67.06l6.523-7.207l32.817,39.729h-11.393V99.583z"/>
	<path fill="#FFFFFF" d="M285.517,100.362c-5.195,0-10.016-0.879-14.459-2.63c-4.447-1.755-8.293-4.204-11.54-7.354
		c-3.247-3.15-5.78-6.831-7.595-11.052c-1.817-4.221-2.726-8.828-2.726-13.829c0-4.998,0.91-9.605,2.726-13.827
		c1.815-4.218,4.349-7.902,7.595-11.051c3.245-3.149,7.076-5.6,11.49-7.351c4.413-1.752,9.25-2.632,14.509-2.632
		c5.191,0,9.98,0.863,14.362,2.582c4.382,1.72,8.211,4.156,11.49,7.303c3.276,3.151,5.809,6.832,7.596,11.051
		c1.785,4.221,2.676,8.863,2.676,13.924c0,5.064-0.893,9.705-2.676,13.926c-1.788,4.222-4.32,7.904-7.596,11.053
		c-3.279,3.15-7.108,5.583-11.49,7.301C295.496,99.5,290.707,100.362,285.517,100.362z M285.517,91.695
		c3.764,0,7.255-0.649,10.468-1.949c3.214-1.297,6.004-3.131,8.374-5.5c2.37-2.37,4.22-5.146,5.552-8.326
		c1.329-3.181,1.994-6.655,1.994-10.42c0-3.762-0.664-7.235-1.994-10.418c-1.331-3.181-3.183-5.954-5.552-8.325
		c-2.371-2.37-5.161-4.203-8.374-5.503c-3.212-1.297-6.703-1.946-10.468-1.946c-3.833,0-7.35,0.649-10.564,1.946
		c-3.214,1.302-6.022,3.136-8.425,5.503c-2.401,2.37-4.269,5.145-5.598,8.325c-1.331,3.183-1.996,6.656-1.996,10.418
		c0,3.767,0.664,7.242,1.996,10.42c1.328,3.182,3.197,5.956,5.598,8.326c2.402,2.369,5.21,4.203,8.425,5.5
		C278.166,91.046,281.684,91.695,285.517,91.695z"/>
	<path fill="#FFFFFF" d="M336.541,99.583V31.418h9.737V91.11h36.907v8.471h-46.644V99.583z"/>
	<path fill="#FFFFFF" d="M394.383,99.583V31.418h9.737V91.11h36.906v8.471h-46.643V99.583z"/>
	<path fill="#FFFFFF" d="M461.959,91.109h39.73v8.472h-49.469V31.417h48.105v8.471h-38.367V91.109z M461.084,60.824h35.055v8.277
		h-35.055V60.824z"/>
	<path fill="#FFFFFF" d="M547.848,100.362c-5.195,0-9.98-0.863-14.363-2.585c-4.382-1.717-8.18-4.152-11.394-7.3
		c-3.212-3.149-5.73-6.833-7.546-11.053s-2.725-8.862-2.725-13.927c0-5.063,0.909-9.704,2.725-13.924
		c1.817-4.219,4.35-7.903,7.596-11.051c3.244-3.15,7.059-5.584,11.443-7.303c4.38-1.72,9.168-2.582,14.361-2.582
		c5.258,0,10.113,0.896,14.559,2.679c4.444,1.785,8.229,4.43,11.344,7.937l-6.33,6.135c-2.595-2.726-5.518-4.755-8.764-6.086
		c-3.246-1.331-6.719-1.996-10.42-1.996c-3.83,0-7.385,0.649-10.662,1.948c-3.279,1.3-6.117,3.116-8.52,5.453
		c-2.403,2.338-4.27,5.113-5.602,8.326c-1.33,3.213-1.993,6.704-1.993,10.467c0,3.766,0.665,7.256,1.993,10.468
		c1.332,3.214,3.198,5.99,5.602,8.327c2.402,2.336,5.242,4.155,8.52,5.451c3.277,1.299,6.832,1.947,10.662,1.947
		c3.701,0,7.174-0.664,10.42-1.993c3.246-1.331,6.167-3.392,8.764-6.185l6.33,6.136c-3.114,3.503-6.897,6.167-11.344,7.982
		C558.057,99.454,553.17,100.362,547.848,100.362z"/>
	<path fill="#FFFFFF" d="M600.528,99.583V39.891h-23.369V31.42h56.38v8.471h-23.37v59.692H600.528z"/>
	<path fill="#FFFFFF" d="M644.15,99.583V31.418h9.738v68.163h-9.738V99.583z"/>
	<path fill="#FFFFFF" d="M705.112,100.362c-5.195,0-10.017-0.879-14.462-2.63c-4.446-1.755-8.294-4.204-11.538-7.354
		c-3.245-3.15-5.778-6.831-7.594-11.052c-1.817-4.221-2.725-8.828-2.725-13.829c0-4.998,0.907-9.605,2.725-13.827
		c1.815-4.218,4.349-7.902,7.594-11.051c3.244-3.149,7.074-5.6,11.49-7.351c4.414-1.752,9.251-2.632,14.51-2.632
		c5.191,0,9.979,0.863,14.361,2.582c4.383,1.72,8.211,4.156,11.49,7.303c3.276,3.151,5.811,6.832,7.594,11.051
		c1.786,4.221,2.678,8.863,2.678,13.924c0,5.064-0.892,9.705-2.678,13.926c-1.786,4.222-4.319,7.904-7.594,11.053
		c-3.279,3.15-7.107,5.583-11.49,7.301C715.091,99.5,710.303,100.362,705.112,100.362z M705.112,91.695
		c3.764,0,7.254-0.649,10.466-1.949c3.214-1.297,6.008-3.131,8.375-5.5c2.367-2.37,4.22-5.146,5.553-8.326
		c1.329-3.181,1.994-6.655,1.994-10.42c0-3.762-0.665-7.235-1.994-10.418c-1.333-3.181-3.186-5.954-5.553-8.325
		c-2.367-2.37-5.161-4.203-8.375-5.503c-3.214-1.297-6.702-1.946-10.466-1.946c-3.832,0-7.353,0.649-10.566,1.946
		c-3.214,1.302-6.018,3.136-8.423,5.503c-2.402,2.37-4.271,5.145-5.601,8.325c-1.33,3.183-1.995,6.656-1.995,10.418
		c0,3.767,0.665,7.242,1.995,10.42c1.329,3.182,3.198,5.956,5.601,8.326c2.403,2.369,5.209,4.203,8.423,5.5
		C697.757,91.046,701.28,91.695,705.112,91.695z"/>
	<path fill="#FFFFFF" d="M756.136,99.583V31.418h7.983l45.084,55.992h-4.188V31.418h9.739v68.163h-7.983l-45.086-55.993h4.188
		v55.993h-9.737V99.583z"/>
</g>
<g>
	<path fill="#9EFF00" d="M131,121.716c0,5.128-4.157,9.284-9.284,9.284H9.284C4.157,131,0,126.844,0,121.716V9.284
		C0,4.156,4.157,0,9.284,0h112.433C126.844,0,131,4.156,131,9.284V121.716z"/>
	<g>
		<polygon fill="#161515" points="65.125,75.969 82.408,93.253 72.228,93.253 54.201,75.227 98.238,31.19 69.327,31.19 
			39.319,61.198 39.319,37.747 47.954,37.747 47.954,42.62 54.51,36.064 54.51,31.19 32.762,31.19 32.762,73.081 32.762,77.025 
			32.762,99.811 59.489,99.811 34.735,75.053 72.044,37.747 82.408,37.747 44.927,75.227 69.512,99.811 98.238,99.811 69.76,71.333 
					"/>
	</g>
</g>
</svg>
