<?xml version="1.0" encoding="utf-8"?>
<!-- Generator: Adobe Illustrator 16.0.0, SVG Export Plug-In . SVG Version: 6.00 Build 0)  -->
<!DOCTYPE svg PUBLIC "-//W3C//DTD SVG 1.1//EN" "http://www.w3.org/Graphics/SVG/1.1/DTD/svg11.dtd">
<svg version="1.1" id="Layer_1" xmlns="http://www.w3.org/2000/svg" xmlns:xlink="http://www.w3.org/1999/xlink" x="0px" y="0px"
	 width="850.391px" height="131px" viewBox="0 0 850.391 131" enable-background="new 0 0 850.391 131" xml:space="preserve">
<g>
	<polygon fill="#FFD600" points="61.943,83.369 91.449,112.879 74.07,112.879 43.294,82.104 118.473,6.929 69.118,6.929 
		17.889,58.155 17.889,18.121 32.629,18.121 32.629,26.44 43.823,15.248 43.823,6.929 6.696,6.929 6.696,78.442 6.696,85.176 
		6.696,124.07 52.322,124.07 10.062,81.81 73.754,18.121 91.449,18.121 27.465,82.104 69.433,124.07 118.473,124.07 69.857,75.459 	
		"/>
</g>
<g>
	<path fill="#FFD600" d="M192.513,100.81V30.191H202.6v70.618H192.513L192.513,100.81z M201.391,83.76l-0.505-12.31l40.05-41.261
		h11.502l-30.971,32.687l-5.649,6.255L201.391,83.76z M242.55,100.81l-28.953-33.695l6.758-7.466l33.999,41.159H242.55V100.81z"/>
	<path fill="#FFD600" d="M294.404,101.617c-5.382,0-10.376-0.91-14.98-2.725c-4.607-1.817-8.592-4.354-11.955-7.617
		c-3.364-3.263-5.988-7.078-7.869-11.45c-1.883-4.373-2.824-9.145-2.824-14.327c0-5.177,0.942-9.951,2.824-14.324
		c1.881-4.37,4.506-8.187,7.869-11.449c3.361-3.262,7.33-5.801,11.903-7.616c4.572-1.815,9.583-2.726,15.032-2.726
		c5.379,0,10.34,0.894,14.879,2.674c4.54,1.783,8.507,4.306,11.904,7.566c3.395,3.264,6.018,7.078,7.869,11.449
		c1.849,4.373,2.773,9.182,2.773,14.426c0,5.247-0.925,10.055-2.773,14.427c-1.852,4.374-4.475,8.188-7.869,11.45
		c-3.397,3.263-7.364,5.785-11.904,7.564C304.743,100.725,299.782,101.617,294.404,101.617z M294.404,92.638
		c3.899,0,7.516-0.672,10.845-2.019c3.33-1.344,6.22-3.244,8.675-5.698c2.455-2.456,4.372-5.331,5.752-8.626
		c1.377-3.295,2.066-6.894,2.066-10.795c0-3.898-0.688-7.496-2.066-10.793c-1.379-3.295-3.297-6.168-5.752-8.625
		c-2.456-2.455-5.346-4.354-8.675-5.701c-3.329-1.344-6.945-2.017-10.845-2.017c-3.97,0-7.615,0.673-10.945,2.017
		c-3.329,1.348-6.238,3.248-8.727,5.701c-2.488,2.455-4.423,5.33-5.8,8.625c-1.379,3.297-2.068,6.895-2.068,10.793
		c0,3.902,0.688,7.503,2.068,10.795c1.376,3.297,3.312,6.17,5.8,8.626c2.488,2.454,5.397,4.354,8.727,5.698
		C286.788,91.966,290.434,92.638,294.404,92.638z"/>
	<path fill="#FFD600" d="M347.265,100.81V30.191h10.088v61.841h38.235v8.777H347.265z"/>
	<path fill="#FFD600" d="M407.189,100.81V30.191h10.088v61.841h38.235v8.777H407.189z"/>
	<path fill="#FFD600" d="M477.199,92.031h41.161v8.777h-51.249V30.19h49.837v8.776h-39.749V92.031z M476.293,60.656h36.316v8.574
		h-36.316V60.656z"/>
	<path fill="#FFD600" d="M566.18,101.617c-5.382,0-10.341-0.894-14.88-2.677c-4.54-1.779-8.475-4.303-11.804-7.563
		c-3.328-3.264-5.937-7.079-7.818-11.451c-1.881-4.372-2.823-9.181-2.823-14.428c0-5.246,0.942-10.053,2.823-14.426
		c1.883-4.371,4.506-8.187,7.87-11.449c3.361-3.263,7.312-5.785,11.854-7.566c4.539-1.781,9.498-2.674,14.879-2.674
		c5.448,0,10.477,0.927,15.083,2.775c4.604,1.85,8.524,4.59,11.752,8.223l-6.558,6.355c-2.689-2.824-5.716-4.926-9.079-6.306
		c-3.363-1.378-6.961-2.067-10.795-2.067c-3.969,0-7.651,0.672-11.047,2.018c-3.396,1.346-6.338,3.228-8.827,5.649
		c-2.489,2.421-4.422,5.296-5.801,8.625s-2.066,6.945-2.066,10.844c0,3.902,0.688,7.517,2.066,10.845
		c1.379,3.33,3.312,6.205,5.801,8.627c2.489,2.42,5.432,4.305,8.827,5.647c3.396,1.346,7.078,2.018,11.047,2.018
		c3.834,0,7.432-0.689,10.795-2.065c3.362-1.379,6.389-3.514,9.079-6.407l6.558,6.355c-3.228,3.63-7.146,6.39-11.752,8.271
		C576.756,100.677,571.694,101.617,566.18,101.617z"/>
	<path fill="#FFD600" d="M620.756,100.81V38.969h-24.211v-8.776h58.41v8.776h-24.211v61.841H620.756z"/>
	<path fill="#FFD600" d="M665.95,100.81V30.191h10.088v70.618H665.95L665.95,100.81z"/>
	<path fill="#FFD600" d="M729.105,101.617c-5.383,0-10.376-0.91-14.982-2.725c-4.606-1.817-8.593-4.354-11.954-7.617
		c-3.362-3.263-5.985-7.078-7.867-11.45c-1.883-4.373-2.824-9.145-2.824-14.327c0-5.177,0.942-9.951,2.824-14.324
		c1.882-4.37,4.505-8.187,7.867-11.449c3.361-3.262,7.33-5.801,11.904-7.616c4.573-1.815,9.584-2.726,15.032-2.726
		c5.379,0,10.339,0.894,14.879,2.674c4.54,1.783,8.507,4.306,11.903,7.566c3.396,3.264,6.019,7.078,7.868,11.449
		c1.85,4.373,2.775,9.182,2.775,14.426c0,5.247-0.926,10.055-2.775,14.427c-1.851,4.374-4.474,8.188-7.868,11.45
		c-3.396,3.263-7.363,5.785-11.903,7.564C739.444,100.725,734.484,101.617,729.105,101.617z M729.105,92.638
		c3.898,0,7.515-0.672,10.843-2.019c3.33-1.344,6.223-3.244,8.676-5.698c2.454-2.456,4.373-5.331,5.753-8.626
		c1.377-3.295,2.065-6.894,2.065-10.795c0-3.898-0.688-7.496-2.065-10.793c-1.38-3.295-3.299-6.168-5.753-8.625
		c-2.453-2.455-5.346-4.354-8.676-5.701c-3.329-1.344-6.944-2.017-10.843-2.017c-3.97,0-7.617,0.673-10.946,2.017
		c-3.33,1.348-6.236,3.248-8.726,5.701c-2.489,2.455-4.425,5.33-5.802,8.625c-1.379,3.297-2.067,6.895-2.067,10.793
		c0,3.902,0.688,7.503,2.067,10.795c1.377,3.297,3.312,6.17,5.802,8.626c2.488,2.454,5.396,4.354,8.726,5.698
		C721.486,91.966,725.135,92.638,729.105,92.638z"/>
	<path fill="#FFD600" d="M781.966,100.81V30.191h8.271l46.708,58.007h-4.339V30.191h10.089v70.618h-8.271l-46.709-58.009h4.339
		v58.009H781.966L781.966,100.81z"/>
</g>
</svg>
