<?xml version="1.0" encoding="utf-8"?>
<!-- Generator: Adobe Illustrator 16.0.0, SVG Export Plug-In . SVG Version: 6.00 Build 0)  -->
<!DOCTYPE svg PUBLIC "-//W3C//DTD SVG 1.1//EN" "http://www.w3.org/Graphics/SVG/1.1/DTD/svg11.dtd">
<svg version="1.1" id="Layer_1" xmlns="http://www.w3.org/2000/svg" xmlns:xlink="http://www.w3.org/1999/xlink" x="0px" y="0px"
	 width="850.391px" height="995.154px" viewBox="0 0 850.391 995.154" enable-background="new 0 0 850.391 995.154"
	 xml:space="preserve">
<g>
	<path fill="#161515" d="M0,995.154v-92.361h13.194v92.361H0z M11.612,972.859l-0.661-16.098l52.382-53.969h15.045l-40.509,42.75
		l-7.389,8.183L11.612,972.859z M65.446,995.154l-37.869-44.069l8.842-9.763l44.464,53.832H65.446L65.446,995.154z"/>
	<path fill="#161515" d="M133.266,996.21c-7.04,0-13.567-1.188-19.593-3.562c-6.024-2.379-11.237-5.696-15.635-9.963
		c-4.4-4.265-7.831-9.259-10.292-14.977c-2.464-5.719-3.695-11.962-3.695-18.737c0-6.77,1.231-13.015,3.695-18.733
		c2.46-5.718,5.893-10.708,10.292-14.977c4.398-4.267,9.587-7.588,15.57-9.963c5.979-2.371,12.536-3.563,19.659-3.563
		c7.037,0,13.524,1.169,19.46,3.495c5.939,2.335,11.129,5.633,15.571,9.899c4.441,4.267,7.872,9.256,10.294,14.977
		c2.417,5.719,3.627,12.006,3.627,18.867s-1.209,13.151-3.627,18.869c-2.422,5.717-5.853,10.708-10.294,14.975
		c-4.441,4.267-9.631,7.566-15.571,9.896C146.791,995.047,140.302,996.21,133.266,996.21z M133.266,984.465
		c5.101,0,9.832-0.877,14.185-2.636c4.354-1.759,8.133-4.245,11.345-7.455c3.209-3.21,5.717-6.97,7.521-11.28
		c1.803-4.311,2.707-9.016,2.707-14.118s-0.903-9.807-2.707-14.116c-1.804-4.312-4.312-8.07-7.521-11.281
		c-3.212-3.211-6.991-5.697-11.345-7.456c-4.355-1.759-9.085-2.636-14.185-2.636c-5.19,0-9.96,0.877-14.316,2.636
		c-4.354,1.761-8.16,4.245-11.414,7.456c-3.255,3.211-5.784,6.971-7.586,11.281c-1.805,4.312-2.705,9.016-2.705,14.116
		c0,5.104,0.9,9.812,2.705,14.118c1.802,4.311,4.331,8.07,7.586,11.28c3.253,3.21,7.06,5.696,11.414,7.455
		C123.305,983.59,128.075,984.465,133.266,984.465z"/>
	<path fill="#161515" d="M202.405,995.154v-92.361h13.195v80.882h50.008v11.479H202.405L202.405,995.154z"/>
	<path fill="#161515" d="M280.779,995.154v-92.361h13.195v80.882h50.009v11.479H280.779L280.779,995.154z"/>
	<path fill="#161515" d="M372.351,983.674h53.834v11.479h-67.028v-92.361h65.181v11.481h-51.987V983.674z M371.164,942.639h47.5
		v11.217h-47.5V942.639z"/>
	<path fill="#161515" d="M488.729,996.21c-7.037,0-13.523-1.163-19.459-3.499c-5.939-2.327-11.084-5.627-15.439-9.894
		c-4.355-4.265-7.765-9.258-10.225-14.977c-2.464-5.718-3.695-12.008-3.695-18.867c0-6.861,1.23-13.151,3.695-18.867
		c2.459-5.721,5.892-10.71,10.29-14.977c4.397-4.269,9.567-7.566,15.504-9.899c5.937-2.326,12.423-3.495,19.46-3.495
		c7.126,0,13.7,1.211,19.728,3.63c6.024,2.42,11.148,6.004,15.372,10.751l-8.578,8.313c-3.518-3.694-7.477-6.441-11.876-8.245
		c-4.398-1.804-9.104-2.706-14.117-2.706c-5.19,0-10.009,0.881-14.447,2.638c-4.443,1.761-8.292,4.224-11.547,7.392
		c-3.255,3.165-5.785,6.926-7.586,11.279c-1.807,4.354-2.705,9.082-2.705,14.183c0,5.104,0.898,9.831,2.705,14.187
		c1.802,4.352,4.332,8.11,7.586,11.277c3.255,3.17,7.104,5.631,11.547,7.39c4.438,1.763,9.256,2.64,14.447,2.64
		c5.015,0,9.719-0.9,14.117-2.704c4.398-1.805,8.357-4.596,11.876-8.38l8.578,8.312c-4.224,4.751-9.348,8.361-15.372,10.821
		C502.561,994.979,495.941,996.21,488.729,996.21z"/>
	<path fill="#161515" d="M560.111,995.154v-80.88h-31.668v-11.479h76.397v11.479h-31.667v80.88H560.111z"/>
	<path fill="#161515" d="M619.222,995.154v-92.361h13.194v92.361H619.222z"/>
	<path fill="#161515" d="M701.823,996.21c-7.04,0-13.571-1.188-19.595-3.562c-6.026-2.379-11.239-5.696-15.638-9.963
		c-4.399-4.265-7.828-9.259-10.289-14.977c-2.462-5.719-3.694-11.962-3.694-18.737c0-6.77,1.232-13.015,3.694-18.733
		c2.461-5.718,5.89-10.708,10.289-14.977c4.398-4.267,9.59-7.588,15.57-9.963c5.984-2.371,12.535-3.563,19.662-3.563
		c7.034,0,13.523,1.169,19.46,3.495c5.937,2.335,11.127,5.633,15.569,9.899c4.439,4.267,7.871,9.256,10.291,14.977
		c2.419,5.719,3.63,12.006,3.63,18.867s-1.209,13.151-3.63,18.869c-2.42,5.717-5.852,10.708-10.291,14.975
		c-4.442,4.267-9.633,7.566-15.569,9.896C715.346,995.047,708.856,996.21,701.823,996.21z M701.823,984.465
		c5.1,0,9.828-0.877,14.181-2.636c4.357-1.759,8.139-4.245,11.349-7.455c3.211-3.21,5.718-6.97,7.521-11.28
		c1.802-4.311,2.705-9.016,2.705-14.118s-0.903-9.807-2.705-14.116c-1.803-4.312-4.31-8.07-7.521-11.281
		c-3.212-3.211-6.991-5.697-11.349-7.456c-4.354-1.759-9.083-2.636-14.181-2.636c-5.192,0-9.963,0.877-14.318,2.636
		c-4.353,1.761-8.157,4.245-11.412,7.456c-3.256,3.211-5.786,6.971-7.586,11.281c-1.805,4.312-2.704,9.016-2.704,14.116
		c0,5.104,0.899,9.812,2.704,14.118c1.801,4.311,4.331,8.07,7.586,11.28s7.06,5.696,11.412,7.455
		C691.859,983.59,696.627,984.465,701.823,984.465z"/>
	<path fill="#161515" d="M770.961,995.154v-92.361h10.82l61.09,75.869h-5.674v-75.869h13.193v92.361h-10.818l-61.094-75.867h5.677
		v75.867H770.961z"/>
</g>
<path fill="#161515" d="M850.394,790.13c0,33.279-26.981,60.264-60.265,60.264H60.265C26.982,850.394,0,823.41,0,790.13V60.265
	C0,26.98,26.982,0,60.265,0h729.864c33.283,0,60.265,26.98,60.265,60.265V790.13z"/>
<g>
	<polygon fill="#FFFFFF" points="422.76,493.158 534.959,605.359 468.87,605.359 351.846,488.335 637.717,202.473 450.037,202.473 
		255.239,397.268 255.239,245.035 311.291,245.035 311.291,276.67 353.856,234.112 353.856,202.473 212.673,202.473 
		212.673,474.411 212.673,500.017 212.673,647.922 386.174,647.922 225.479,487.213 467.676,245.035 534.959,245.035 
		291.65,488.335 451.24,647.922 637.717,647.922 452.852,463.061 	"/>
</g>
</svg>
