<?xml version="1.0" encoding="utf-8"?>
<!-- Generator: Adobe Illustrator 16.0.0, SVG Export Plug-In . SVG Version: 6.00 Build 0)  -->
<!DOCTYPE svg PUBLIC "-//W3C//DTD SVG 1.1//EN" "http://www.w3.org/Graphics/SVG/1.1/DTD/svg11.dtd">
<svg version="1.1" id="Layer_1" xmlns="http://www.w3.org/2000/svg" xmlns:xlink="http://www.w3.org/1999/xlink" x="0px" y="0px"
	 width="850.391px" height="996.21px" viewBox="0 0 850.391 996.21" enable-background="new 0 0 850.391 996.21"
	 xml:space="preserve">
<g>
	<path fill="#161515" d="M0,995.154v-92.361h13.194v92.361H0z M11.612,972.859l-0.661-16.098l52.382-53.969h15.045l-40.509,42.75
		l-7.389,8.182L11.612,972.859z M65.446,995.154l-37.869-44.068l8.842-9.764l44.464,53.832H65.446L65.446,995.154z"/>
	<path fill="#161515" d="M133.266,996.21c-7.04,0-13.567-1.188-19.593-3.562c-6.024-2.379-11.237-5.695-15.635-9.963
		c-4.4-4.266-7.831-9.26-10.292-14.977c-2.464-5.719-3.695-11.963-3.695-18.738c0-6.77,1.231-13.014,3.695-18.732
		c2.46-5.719,5.893-10.707,10.292-14.977c4.398-4.268,9.587-7.588,15.57-9.963c5.979-2.371,12.536-3.562,19.659-3.562
		c7.037,0,13.524,1.168,19.46,3.494c5.939,2.336,11.129,5.633,15.571,9.898c4.441,4.268,7.872,9.256,10.294,14.979
		c2.417,5.719,3.627,12.006,3.627,18.865c0,6.861-1.209,13.152-3.627,18.869c-2.422,5.717-5.853,10.709-10.294,14.977
		c-4.441,4.266-9.631,7.564-15.571,9.895C146.791,995.046,140.302,996.21,133.266,996.21z M133.266,984.464
		c5.101,0,9.832-0.877,14.185-2.635c4.354-1.76,8.133-4.246,11.345-7.455c3.209-3.211,5.717-6.971,7.521-11.281
		c1.803-4.311,2.707-9.016,2.707-14.117s-0.903-9.807-2.707-14.115c-1.804-4.312-4.312-8.07-7.521-11.281
		c-3.212-3.211-6.991-5.697-11.345-7.457c-4.355-1.758-9.085-2.635-14.185-2.635c-5.19,0-9.96,0.877-14.316,2.635
		c-4.354,1.762-8.16,4.246-11.414,7.457c-3.255,3.211-5.784,6.971-7.586,11.281c-1.805,4.311-2.705,9.016-2.705,14.115
		c0,5.104,0.9,9.812,2.705,14.117c1.802,4.312,4.331,8.07,7.586,11.281c3.253,3.209,7.06,5.695,11.414,7.455
		C123.305,983.589,128.075,984.464,133.266,984.464z"/>
	<path fill="#161515" d="M202.405,995.154v-92.361H215.6v80.883h50.008v11.48h-63.203V995.154z"/>
	<path fill="#161515" d="M280.779,995.154v-92.361h13.195v80.883h50.009v11.48h-63.205V995.154z"/>
	<path fill="#161515" d="M372.351,983.673h53.834v11.48h-67.026v-92.361h65.181v11.479h-51.987L372.351,983.673L372.351,983.673z
		 M371.164,942.638h47.5v11.217h-47.5V942.638z"/>
	<path fill="#161515" d="M488.729,996.21c-7.035,0-13.521-1.164-19.459-3.5c-5.938-2.326-11.084-5.627-15.438-9.893
		c-4.355-4.268-7.765-9.262-10.225-14.98c-2.466-5.717-3.695-12.008-3.695-18.867c0-6.857,1.229-13.148,3.695-18.863
		c2.459-5.725,5.892-10.713,10.29-14.98c4.396-4.268,9.565-7.564,15.504-9.898c5.937-2.324,12.423-3.492,19.46-3.492
		c7.126,0,13.698,1.211,19.728,3.629c6.024,2.42,11.148,6.004,15.372,10.752l-8.578,8.311c-3.518-3.691-7.477-6.439-11.876-8.246
		c-4.396-1.803-9.104-2.705-14.117-2.705c-5.188,0-10.009,0.883-14.445,2.641c-4.443,1.76-8.292,4.223-11.549,7.391
		c-3.255,3.166-5.783,6.926-7.586,11.279c-1.807,4.354-2.704,9.082-2.704,14.184c0,5.104,0.897,9.83,2.704,14.188
		c1.804,4.352,4.332,8.109,7.586,11.275c3.257,3.17,7.104,5.633,11.549,7.391c4.438,1.764,9.256,2.641,14.445,2.641
		c5.017,0,9.721-0.898,14.117-2.705c4.398-1.805,8.357-4.596,11.876-8.379l8.578,8.312c-4.224,4.75-9.348,8.359-15.372,10.82
		C502.561,994.978,495.941,996.21,488.729,996.21z"/>
	<path fill="#161515" d="M560.111,995.154v-80.879h-31.668v-11.48h76.396v11.48h-31.667v80.879H560.111L560.111,995.154z"/>
	<path fill="#161515" d="M619.222,995.154v-92.361h13.194v92.361H619.222z"/>
	<path fill="#161515" d="M701.823,996.21c-7.04,0-13.571-1.188-19.595-3.562c-6.026-2.379-11.239-5.695-15.64-9.963
		c-4.397-4.266-7.828-9.26-10.289-14.977c-2.462-5.719-3.692-11.963-3.692-18.738c0-6.77,1.23-13.014,3.692-18.732
		c2.461-5.719,5.892-10.707,10.289-14.977c4.398-4.268,9.59-7.588,15.57-9.963c5.983-2.371,12.535-3.562,19.662-3.562
		c7.034,0,13.521,1.168,19.46,3.494c5.937,2.336,11.127,5.633,15.568,9.898c4.438,4.268,7.87,9.256,10.291,14.979
		c2.42,5.719,3.631,12.006,3.631,18.865c0,6.861-1.209,13.152-3.631,18.869c-2.421,5.717-5.853,10.709-10.291,14.977
		c-4.441,4.266-9.634,7.564-15.568,9.895C715.346,995.046,708.856,996.21,701.823,996.21z M701.823,984.464
		c5.1,0,9.828-0.877,14.181-2.635c4.357-1.76,8.139-4.246,11.35-7.455c3.212-3.211,5.719-6.971,7.521-11.281
		c1.802-4.311,2.705-9.016,2.705-14.117s-0.903-9.807-2.705-14.115c-1.803-4.312-4.31-8.07-7.521-11.281
		c-3.213-3.211-6.99-5.697-11.35-7.457c-4.354-1.758-9.083-2.635-14.181-2.635c-5.192,0-9.963,0.877-14.318,2.635
		c-4.353,1.762-8.157,4.246-11.412,7.457c-3.256,3.211-5.786,6.971-7.586,11.281c-1.805,4.311-2.704,9.016-2.704,14.115
		c0,5.104,0.899,9.812,2.704,14.117c1.801,4.312,4.331,8.07,7.586,11.281c3.255,3.209,7.062,5.695,11.412,7.455
		C691.859,983.589,696.627,984.464,701.823,984.464z"/>
	<path fill="#161515" d="M770.961,995.154v-92.361h10.82l61.09,75.869h-5.674v-75.869h13.191v92.361h-10.816l-61.094-75.867h5.677
		v75.867H770.961z"/>
</g>
<path fill="#161515" d="M850.394,790.13c0,33.279-26.979,60.264-60.265,60.264H60.265C26.982,850.394,0,823.41,0,790.13V60.265
	C0,26.98,26.982,0,60.265,0h729.864c33.283,0,60.266,26.98,60.266,60.265L850.394,790.13L850.394,790.13z"/>
<g>
	<polygon fill="#9EFF00" points="422.76,493.158 534.959,605.359 468.87,605.359 351.846,488.335 637.717,202.473 450.037,202.473 
		255.239,397.268 255.239,245.035 311.291,245.035 311.291,276.67 353.856,234.112 353.856,202.473 212.673,202.473 
		212.673,474.412 212.673,500.017 212.673,647.921 386.174,647.921 225.479,487.212 467.676,245.035 534.959,245.035 
		291.65,488.335 451.24,647.921 637.717,647.921 452.852,463.06 	"/>
</g>
</svg>
