<?xml version="1.0" encoding="utf-8"?>
<!-- Generator: Adobe Illustrator 16.0.0, SVG Export Plug-In . SVG Version: 6.00 Build 0)  -->
<!DOCTYPE svg PUBLIC "-//W3C//DTD SVG 1.1//EN" "http://www.w3.org/Graphics/SVG/1.1/DTD/svg11.dtd">
<svg version="1.1" id="Layer_1" xmlns="http://www.w3.org/2000/svg" xmlns:xlink="http://www.w3.org/1999/xlink" x="0px" y="0px"
	 width="850.391px" height="850.39px" viewBox="0 0 850.391 850.39" enable-background="new 0 0 850.391 850.39"
	 xml:space="preserve">
<path fill="#9EFF00" d="M850.394,790.13c0,33.279-26.981,60.264-60.265,60.264H60.265C26.982,850.394,0,823.41,0,790.13V60.265
	C0,26.98,26.982,0,60.265,0h729.864c33.283,0,60.265,26.98,60.265,60.265V790.13z"/>
<g>
	<polygon fill="#161515" points="422.76,493.158 534.959,605.359 468.87,605.359 351.846,488.335 637.717,202.473 450.037,202.473 
		255.239,397.268 255.239,245.035 311.291,245.035 311.291,276.67 353.856,234.112 353.856,202.473 212.673,202.473 
		212.673,474.411 212.673,500.017 212.673,647.922 386.174,647.922 225.479,487.213 467.676,245.035 534.959,245.035 
		291.65,488.335 451.24,647.922 637.717,647.922 452.852,463.061 	"/>
</g>
</svg>
